<svg xmlns="http://www.w3.org/2000/svg" xmlns:xlink="http://www.w3.org/1999/xlink" version="1.1" x="0px" y="0px" viewBox="0 0 91 113.75" enable-background="new 0 0 91 91" fill="white" xml:space="preserve"><g><path d="M86.95,9.948H4.431c-1.88,0-3.467,1.538-3.467,3.418v46.167c0,1.88,1.587,3.467,3.467,3.467h2.026   c0.146,0,0.317-0.024,0.537-0.049c0.317,1.221,0.879,2.344,1.587,3.442c0.513,0.757,1.172,1.514,1.855,2.246   c-0.806,0.171-1.587,0.439-2.271,0.879c-1.563,0.879-2.93,2.051-3.955,3.54c-0.586,0.952-1.074,1.88-1.392,2.93L2.771,76.11   c-0.269,0.977-0.415,2.002-0.415,3.027v1.392c0,1.123,0.928,2.026,2.075,2.026h82.52c1.147,0,2.075-0.903,2.075-2.026v-1.392   c0-0.903-0.122-1.758-0.317-2.661c-0.22-0.806-0.562-1.709-0.977-2.466c-0.415-0.83-0.952-1.587-1.538-2.197   c-0.586-0.659-1.27-1.245-2.026-1.758l-0.098-0.073c-0.854-0.537-1.807-0.977-2.783-1.294l-0.317-0.098   c0.684-0.684,1.294-1.44,1.855-2.197c0.659-1.074,1.221-2.197,1.611-3.394h2.515c1.904,0,3.442-1.587,3.442-3.467V13.366   C90.393,11.486,88.854,9.948,86.95,9.948L86.95,9.948z M81.799,73.449L81.799,73.449l0.073,0.049   c0.488,0.269,0.903,0.635,1.245,1.099h0.049c0.366,0.391,0.684,0.854,0.928,1.343c0.293,0.439,0.488,1.001,0.586,1.587h0.024   c0.049,0.269,0.146,0.61,0.171,0.928H6.506c0.049-0.391,0.146-0.806,0.22-1.172l0.049-0.122c0.22-0.635,0.488-1.27,0.854-1.807   c0.635-0.903,1.44-1.685,2.441-2.222c0.952-0.488,2.051-0.781,3.174-0.781h12.695c0.635,0,1.294,0.098,1.929,0.293   s1.27,0.464,1.807,0.83c0.269,0.171,0.488,0.391,0.757,0.586v-0.024c0.195,0.195,0.366,0.415,0.537,0.586   c0.098,0.122,0.195,0.244,0.342,0.317c0.879,0.781,2.197,0.684,2.905-0.22c0.635-0.708,1.416-1.294,2.319-1.758   c0.854-0.415,1.831-0.61,2.832-0.61h12.646c0.684,0,1.367,0.098,2.002,0.293s1.221,0.464,1.758,0.83   c0.244,0.171,0.488,0.391,0.732,0.586v-0.024c0.22,0.195,0.439,0.415,0.562,0.586c0.122,0.122,0.22,0.244,0.366,0.317   c0.854,0.781,2.148,0.684,2.881-0.22c0.635-0.708,1.44-1.294,2.344-1.758c0.83-0.415,1.855-0.61,2.808-0.61h12.671   c0.659,0,1.343,0.098,1.953,0.293h0.024C80.7,72.839,81.286,73.107,81.799,73.449L81.799,73.449z M10.51,59.045L10.51,59.045   c0-0.61,0.049-1.221,0.146-1.807c0.122-0.586,0.293-1.172,0.537-1.709c1.367-3.345,4.736-5.542,8.374-5.542   c5.054,0,9.106,4.102,9.106,9.058c0,1.831-0.537,3.54-1.514,5.029c-0.977,1.44-2.344,2.661-4.028,3.394   c-1.123,0.439-2.344,0.684-3.564,0.684c-1.196,0-2.417-0.244-3.516-0.684h-0.024c-1.66-0.732-3.027-1.953-4.028-3.394   C11.022,62.585,10.51,60.876,10.51,59.045L10.51,59.045z M28.723,68.591L28.723,68.591c0.732-0.684,1.367-1.44,1.904-2.197   c1.025-1.587,1.709-3.369,2.026-5.249c0.269,1.88,0.977,3.662,2.026,5.249c0.537,0.757,1.172,1.514,1.88,2.246   c-0.61,0.122-1.196,0.317-1.758,0.635c-0.757,0.317-1.489,0.757-2.148,1.294c-0.22-0.171-0.464-0.366-0.708-0.513   c-0.879-0.586-1.855-1.05-2.881-1.367L28.723,68.591L28.723,68.591z M54.821,68.591L54.821,68.591   c0.732-0.684,1.343-1.44,1.855-2.197c1.05-1.587,1.758-3.369,2.075-5.249c0.293,1.88,1.025,3.662,2.026,5.249   c0.537,0.757,1.172,1.514,1.88,2.246c-0.586,0.122-1.172,0.317-1.758,0.635c-0.757,0.317-1.489,0.757-2.1,1.294   c-0.244-0.171-0.513-0.366-0.732-0.513c-0.903-0.586-1.855-1.05-2.881-1.367L54.821,68.591L54.821,68.591z M62.707,59.045   L62.707,59.045c0-0.586,0.098-1.172,0.146-1.733l0.049-0.073c0.806-4.199,4.59-7.251,8.887-7.251c4.98,0,9.131,4.102,9.131,9.058   c0,1.831-0.586,3.54-1.538,5.029c-0.952,1.416-2.295,2.612-3.906,3.345l-0.146,0.049c-1.123,0.439-2.319,0.684-3.54,0.684   c-1.196,0-2.417-0.244-3.54-0.684c-1.66-0.732-3.052-1.953-4.028-3.394C63.293,62.585,62.707,60.876,62.707,59.045L62.707,59.045z    M83.532,52.941L83.532,52.941c-0.635-1.196-1.44-2.295-2.393-3.247c-2.393-2.368-5.688-3.857-9.351-3.857   c-5.298,0-10.156,3.247-12.207,8.154c-0.342,0.806-0.61,1.611-0.757,2.466v0.024l-0.073,0.488   c-1.025-6.348-6.592-11.133-13.037-11.133c-5.322,0-10.229,3.247-12.207,8.154c-0.366,0.806-0.586,1.611-0.806,2.466l-0.049,0.513   c-1.05-6.372-6.616-11.133-13.086-11.133c-4.858,0-9.448,2.734-11.719,7.104V16.809h75.684V52.941L83.532,52.941z"/></g></svg>